<svg width="98" height="126" viewBox="0 0 98 126" fill="none" xmlns="http://www.w3.org/2000/svg">
<path d="M97.0625 4.41899C97.1636 5.02637 97.144 5.64771 97.0049 6.24753C96.8658 6.84734 96.6099 7.41387 96.2518 7.91475C95.8937 8.41564 95.4404 8.84106 94.9178 9.16673C94.3953 9.49239 93.8137 9.71191 93.2062 9.81274L58.8938 15.5315L58.1563 19.2502H83.0625C84.3057 19.2502 85.498 19.7441 86.3771 20.6232C87.2561 21.5023 87.75 22.6945 87.75 23.9377V48.9377C87.7494 54.0541 85.8181 58.9817 82.342 62.7359C78.8659 66.4901 74.1012 68.7942 69 69.1877V72.3752C69 84.5815 60.25 94.744 48.6875 96.9377V116.125H64.3125C65.5557 116.125 66.748 116.619 67.6271 117.498C68.5061 118.377 69 119.57 69 120.813C69 122.056 68.5061 123.248 67.6271 124.127C66.748 125.006 65.5557 125.5 64.3125 125.5H23.6875C22.4443 125.5 21.252 125.006 20.3729 124.127C19.4939 123.248 19 122.056 19 120.813C19 119.57 19.4939 118.377 20.3729 117.498C21.252 116.619 22.4443 116.125 23.6875 116.125H39.3125V96.9377C33.5981 95.8457 28.4434 92.7954 24.7358 88.3121C21.0282 83.8288 18.9998 78.193 19 72.3752V69.1877C13.8988 68.7942 9.13406 66.4901 5.65799 62.7359C2.18191 58.9817 0.250583 54.0541 0.25 48.9377V23.9377C0.25 22.6945 0.74386 21.5023 1.62294 20.6232C2.50201 19.7441 3.6943 19.2502 4.9375 19.2502H48.5937L50.3438 10.519C50.5299 9.58606 50.9955 8.73185 51.6787 8.06985C52.3619 7.40785 53.2304 6.9694 54.1688 6.81274L91.6688 0.562743C92.2761 0.46166 92.8975 0.48123 93.4973 0.620336C94.0971 0.759442 94.6636 1.01536 95.1645 1.37346C95.6654 1.73157 96.0908 2.18485 96.4165 2.70741C96.7421 3.22997 96.9617 3.81157 97.0625 4.41899ZM43.9062 42.6877L46.7188 28.6252H9.625V42.6877H43.9062ZM78.375 42.6877V28.6252H56.2812L53.4688 42.6877H78.375Z" fill="#232323"/>
</svg>
